<svg version="1.1" id="Layer_1" xmlns="http://www.w3.org/2000/svg" x="0px" y="0px" viewBox="0 0 240 240"><path fill="#fff" d="M240,86.5v106.3c0,5.9-2.1,10.9-6.3,15.1c-4.2,4.2-9.2,6.3-15.1,6.3H21.4c-5.9,0-10.9-2.1-15.1-6.3  c-4.2-4.2-6.3-9.2-6.3-15.1V86.5c3.9,4.4,8.4,8.3,13.5,11.7c32.3,22,54.5,37.4,66.6,46.2c5.1,3.8,9.2,6.7,12.4,8.8s7.4,4.2,12.7,6.4  c5.3,2.2,10.2,3.3,14.7,3.3h0.3c4.6,0,9.5-1.1,14.7-3.3c5.3-2.2,9.5-4.3,12.7-6.4s7.3-5,12.4-8.8c15.2-11,37.4-26.4,66.7-46.2  C231.7,94.7,236.2,90.8,240,86.5z M240,47.1c0,7.1-2.2,13.8-6.6,20.2c-4.4,6.4-9.8,11.9-16.3,16.5c-33.6,23.3-54.5,37.8-62.7,43.5  c-0.9,0.6-2.8,2-5.7,4.1s-5.3,3.8-7.2,5.1c-1.9,1.3-4.2,2.7-7,4.4c-2.7,1.6-5.3,2.8-7.7,3.6c-2.4,0.8-4.6,1.2-6.7,1.2h-0.3  c-2.1,0-4.3-0.4-6.7-1.2c-2.4-0.8-5-2-7.7-3.6c-2.7-1.6-5-3.1-7-4.4s-4.3-3-7.2-5.1c-2.9-2.1-4.8-3.5-5.7-4.1  c-8.1-5.7-19.8-13.9-35.1-24.4S26.1,86,23,83.8c-5.5-3.8-10.8-8.9-15.7-15.5S0,55.7,0,50.1c0-7,1.9-12.8,5.6-17.4s9-7,15.9-7h197.1  c5.8,0,10.8,2.1,15.1,6.3C237.9,36.2,240,41.2,240,47.1z"></path></svg>