<?xml version="1.0" encoding="UTF-8"?>
<svg id="Layer_2" data-name="Layer 2" xmlns="http://www.w3.org/2000/svg" viewBox="0 0 181.05 175.26">
  <defs>
    <style>
      .cls-1 {
        strokeWidth: 0px;
      }
    </style>
  </defs>
  <g id="Layer_1-2" data-name="Layer 1">
    <g>
      <g>
        <polygon class="cls-1" points="57.86 157.33 73.2 174.36 62.62 174.36 49.92 160.27 49.92 174.36 41.38 174.36 41.38 135.73 49.92 126.25 49.92 154.35 62.55 140.3 73.2 140.3 57.86 157.33"/>
        <path class="cls-1" d="m122.92,153.71l-3.14-1.6c-1.86-.96-3.08-1.54-3.08-2.82s1.35-2.05,3.08-2.05c2.05,0,3.98,1.22,5.9,3.14l5.26-5.32c-2.76-3.66-6.8-5.65-11.23-5.65-6.54,0-11.03,4.49-11.03,9.82,0,4.3,2.76,7.63,8.21,10.39l2.88,1.48c2.38,1.22,3.78,2.31,3.78,3.78s-1.67,2.76-3.78,2.76c-2.24,0-5.13-1.67-7.12-3.98l-5.26,5.77c2.95,3.85,6.99,5.83,11.93,5.83,7.44,0,12.25-4.55,12.25-10.65,0-5.07-3.01-8.02-8.66-10.9Z"/>
        <path class="cls-1" d="m137.87,126.25c-2.95,0-5.45,2.25-5.45,5.2,0,3.14,2.31,5.9,5.45,5.9s5.45-2.44,5.45-5.45-2.37-5.65-5.45-5.65Zm-4.23,14.05v34.06h8.53v-34.06h-8.53Z"/>
        <path class="cls-1" d="m28.04,140.3v2.23c-2.88-1.97-6.36-3.13-10.11-3.13-.11,0-.22,0-.33,0-2.71.05-5.28.7-7.57,1.82-.02,0-.04.02-.05.03-5.91,2.93-9.98,9.03-9.98,16.07,0,8.26,5.58,15.22,13.19,17.29,0,0,0,0,.02,0,1.44.39,2.95.61,4.51.63h.22c3.75,0,7.23-1.15,10.11-3.13v2.23h8.53v-34.06h-8.53Zm-9.48,27.12c-.21.01-.42.02-.64.02-5.59,0-10.11-4.53-10.11-10.11s4.53-10.11,10.11-10.11c.21,0,.41,0,.61.02,0,0,.01,0,.02,0,5.29.32,9.48,4.71,9.48,10.09s-4.19,9.77-9.48,10.09Z"/>
        <path class="cls-1" d="m172.52,140.3v2.23c-2.88-1.97-6.36-3.13-10.11-3.13-.11,0-.22,0-.33,0-2.71.05-5.28.7-7.57,1.82-.02,0-.04.02-.05.03-5.91,2.93-9.98,9.03-9.98,16.07,0,8.26,5.59,15.22,13.19,17.29,0,0,0,0,.02,0,1.44.39,2.95.61,4.51.63h.22c3.75,0,7.23-1.15,10.11-3.13v2.23h8.53v-34.06h-8.53Zm-9.48,27.12c-.21.01-.42.02-.64.02-5.59,0-10.11-4.53-10.11-10.11s4.53-10.11,10.11-10.11c.21,0,.41,0,.61.02,0,0,.01,0,.02,0,5.29.32,9.48,4.71,9.48,10.09s-4.19,9.77-9.48,10.09Z"/>
        <path class="cls-1" d="m96.82,140.3v2.23c-2.88-1.97-6.36-3.13-10.11-3.13-.11,0-.22,0-.33,0-2.71.05-5.28.7-7.57,1.82-.02,0-.03.02-.05.03-5.91,2.93-9.98,9.03-9.98,16.07,0,8.26,5.59,15.22,13.19,17.29,0,0,0,0,.02,0,1.44.39,2.95.61,4.51.63h.22c3.75,0,7.23-1.15,10.11-3.13v2.23h8.53v-34.06h-8.53Zm-9.48,27.12c-.21.01-.42.02-.64.02-5.59,0-10.11-4.53-10.11-10.11s4.53-10.11,10.11-10.11c.21,0,.41,0,.61.02,0,0,.01,0,.02,0,5.29.32,9.48,4.71,9.48,10.09s-4.19,9.77-9.48,10.09Z"/>
      </g>
      <path class="cls-1" d="m42.48,22.86h8.38c-5.29,7.72-8.38,17.05-8.38,27.1,0,.29,0,.59.01.88.13,7.27,1.88,14.16,4.89,20.29.02.05.05.09.07.13,7.85,15.85,24.19,26.75,43.07,26.75,22.13,0,40.78-14.97,46.35-35.34.01-.01.01-.02.01-.05,1.06-3.85,1.63-7.89,1.69-12.08v-.59c0-10.06-3.09-19.38-8.38-27.1h8.38V0H42.48v22.86Zm75.08,25.4c.04.56.06,1.13.06,1.7,0,14.97-12.14,27.1-27.1,27.1s-27.09-12.14-27.09-27.1c0-.55.01-1.09.06-1.63-.01-.02-.01-.03,0-.06.87-14.18,12.63-25.41,27.03-25.41s26.17,11.23,27.04,25.4Z"/>
    </g>
  </g>
</svg>