<svg width="242" height="42" viewBox="0 0 242 42" fill="none" xmlns="http://www.w3.org/2000/svg">
<path d="M8.09666 14.7761C7.52252 15.2898 6.97859 15.8942 6.46489 16.4986C7.00881 16.6194 7.52252 16.6799 8.09666 16.6799C8.6708 16.6799 9.21472 16.6194 9.72843 16.4986C9.24494 15.864 8.70102 15.2898 8.09666 14.7761ZM1.11631 11.3011C1.69045 13.4465 3.23157 15.2294 5.25617 16.1057C5.86053 15.3805 6.52533 14.6855 7.25056 14.0811C5.49792 12.6911 3.38266 11.7241 1.11631 11.3011ZM10.9371 16.1057C12.9618 15.2596 14.5029 13.4768 15.077 11.3011C12.8409 11.7241 10.7256 12.6911 8.91255 14.0811C9.66799 14.6855 10.3328 15.3503 10.9371 16.1057ZM8.09666 2.26587C4.10789 2.26587 0.904785 5.4992 0.904785 9.48798C0.904785 9.91103 0.935001 10.3643 1.02566 10.7571C3.59418 11.0291 6.04184 11.9659 8.09666 13.4465C10.1817 11.9659 12.5991 11.0291 15.1979 10.7571C15.2885 10.3341 15.3188 9.91103 15.3188 9.48798C15.3188 5.4992 12.0854 2.26587 8.09666 2.26587ZM12.3272 8.43034C12.3272 8.58143 12.297 8.73252 12.297 8.88362C12.1459 7.64468 11.4811 6.55683 10.4839 5.86181C11.3602 7.46337 11.1185 9.48798 9.75865 10.8478C9.63778 10.9687 9.5169 11.0593 9.39603 11.15C10.7256 9.48798 10.635 7.07053 9.09385 5.52941C8.94276 5.37832 8.82189 5.25745 8.6708 5.13658C8.64058 5.13658 8.58015 5.13658 8.58015 5.13658V11.7845C8.58015 12.0565 8.36862 12.268 8.09666 12.268C7.8247 12.268 7.64339 12.0565 7.64339 11.7845V5.13658C7.61317 5.13658 7.55274 5.13658 7.52252 5.13658C7.37143 5.25745 7.22034 5.37832 7.09947 5.52941C5.55835 7.07053 5.43748 9.48798 6.79729 11.15C6.67642 11.0593 6.55554 10.9384 6.46489 10.8478C5.10508 9.48798 4.86334 7.46337 5.73966 5.86181C4.74247 6.52661 4.07767 7.61446 3.92658 8.88362C3.89636 8.73252 3.89636 8.58143 3.89636 8.43034C3.89636 6.52661 5.16552 4.89484 6.91816 4.38113C5.73966 4.1696 4.4705 4.44156 3.50353 5.22723C3.59418 5.10636 3.71506 4.98549 3.80571 4.89483C4.98421 3.71633 6.6462 3.38393 8.12688 3.86742C9.60756 3.38393 11.2695 3.71633 12.448 4.89483C12.5387 5.0157 12.6596 5.13658 12.7502 5.22723C11.753 4.44156 10.5141 4.13939 9.3356 4.38113C11.058 4.89484 12.3272 6.49639 12.3272 8.43034Z" fill="#AAACAF"/>
<path d="M31.7591 13.8061C31.5778 14.2291 31.3361 14.622 31.0339 14.9846C30.49 15.5587 29.6741 16.1328 28.2841 16.1328C26.1386 16.1328 24.5068 13.7456 24.5068 11.0864C24.5068 8.60856 26.1688 6.13068 28.7978 6.13068C30.4296 6.13068 31.457 7.24875 31.7894 7.24875C32.1822 7.24875 32.2426 6.61418 32.3937 6.37243H32.9679C32.8772 6.85592 32.8772 7.43006 32.8772 7.88333V13.6852C32.8772 14.3198 32.9679 15.4983 34.2975 15.5889H36.5336V16.1328H34.932C33.3305 16.1328 32.0613 15.9213 31.7591 13.8061ZM28.7676 6.67461C26.8336 6.67461 25.9271 8.85031 25.9271 11.2073C25.9271 14.5615 27.5286 15.5587 28.556 15.5587C29.795 15.5587 30.8526 14.7126 31.2454 13.4737C31.457 12.7484 31.5174 11.9628 31.5174 10.754C31.5174 8.85031 31.2152 6.67461 28.7676 6.67461ZM27.7099 3.8039C27.2567 3.8039 26.8941 3.4715 26.8941 3.01823C26.8941 2.53474 27.2265 2.17212 27.7099 2.17212C28.1934 2.17212 28.5258 2.53474 28.5258 3.01823C28.5258 3.50172 28.1934 3.8039 27.7099 3.8039ZM30.5806 3.8039C30.0972 3.8039 29.7648 3.4715 29.7648 3.01823C29.7648 2.53474 30.0972 2.17212 30.5806 2.17212C31.0339 2.17212 31.3965 2.53474 31.3965 3.01823C31.3965 3.50172 31.0641 3.8039 30.5806 3.8039Z" fill="#363434"/>
<path d="M36.2324 20.0008C35.7791 20.0008 35.4165 19.6684 35.4165 19.1849C35.4165 18.7317 35.7791 18.369 36.2324 18.369C36.7159 18.369 37.0483 18.7317 37.0483 19.1849C37.0483 19.6684 36.7159 20.0008 36.2324 20.0008ZM43.5451 16.1329C42.004 16.1329 41.037 15.4983 40.3118 14.0176C40.0399 15.3775 38.952 16.1329 37.4109 16.1329H36.0813V15.589H37.0181C38.4081 15.5588 38.9822 14.7429 38.9822 13.3528V7.76251C38.9822 7.21858 38.952 7.12793 38.2268 6.91641L40.3722 6.46313V11.993C40.3722 13.4435 41.3392 15.589 43.0617 15.589H43.7264V16.1329H43.5451ZM39.1333 20.0008C38.6498 20.0008 38.3174 19.6684 38.3174 19.1849C38.3174 18.7317 38.68 18.369 39.1333 18.369C39.5866 18.369 39.9492 18.7317 39.9492 19.1849C39.9492 19.6684 39.5866 20.0008 39.1333 20.0008Z" fill="#363434"/>
<path d="M43.3328 15.5889H43.5443C44.9948 15.5889 45.5991 14.7428 45.5991 13.3528V3.59237C45.5991 3.04845 45.5689 2.83692 44.8437 2.62539L46.9891 2.17212V13.3528C46.9891 15.1659 45.8106 16.1631 44.0278 16.1631H43.363V15.5889H43.3328Z" fill="#363434"/>
<path d="M50.7954 13.4738V3.6832C50.7954 3.07884 50.463 2.8371 49.1938 2.8371V2.26296L52.1854 2.14209V13.5645C52.1854 14.8034 52.82 15.4682 53.9079 15.5589H54.8144V16.1028H53.8172C52.0646 16.133 50.7954 15.4985 50.7954 13.4738Z" fill="#363434"/>
<path d="M68.2314 16.1328C66.6903 16.1328 65.8744 15.4983 65.0888 14.2593C64.5751 15.8004 63.185 17.0998 60.9489 17.0998C59.015 17.0998 58.048 15.9515 57.4134 15.045L57.3227 14.9543C56.7788 15.6796 56.2349 16.1328 55.0262 16.1328H54.3916V15.5889H55.0564C55.2075 15.5587 55.7816 15.468 56.0838 15.1659C58.2595 13.1413 56.6882 8.0042 61.523 8.0042C64.0311 8.0042 65.3909 10.6332 65.3909 12.6578C65.3909 12.9297 65.3607 13.2017 65.3305 13.4434C65.6931 14.5615 66.5694 15.5889 67.7782 15.5889H68.2617C69.7121 15.5889 70.3165 14.7428 70.3165 13.3528V3.59237C70.3165 3.04845 70.2863 2.83692 69.5308 2.62539L71.6763 2.17212V13.3528C71.6763 15.1659 70.4978 16.1631 68.7149 16.1631H68.2314V16.1328ZM61.1604 8.48769C58.6221 8.48769 58.8941 12.1743 57.6854 14.4406C57.776 14.5011 57.8364 14.5615 57.8667 14.6219C58.471 15.317 59.438 16.5257 61.0698 16.5257C62.6109 16.5257 63.9405 14.8335 63.9405 12.7484C63.9405 10.5727 63.0339 8.54813 61.2209 8.48769H61.1604Z" fill="#363434"/>
<path d="M74.8494 3.56233C74.8494 3.01841 74.8192 2.80689 74.0637 2.59536L76.2092 2.14209V16.133H74.8494V3.56233Z" fill="#363434"/>
<path d="M94.8236 12.7499C94.8236 16.2854 92.7386 20.0022 88.6289 20.0022C84.4891 20.0022 82.404 16.3156 82.404 12.7499V9.63744C82.404 9.0633 82.0716 8.82155 80.8025 8.82155V8.24741L83.7941 8.12654V12.7499C83.7941 17.9776 86.2115 19.3979 88.6289 19.3979C90.714 19.3979 92.8292 18.31 93.3127 14.563C92.7386 15.53 91.8925 16.1343 90.3211 16.1343C88.9311 16.1343 87.2087 14.8349 87.2087 12.7801C87.2087 8.94243 89.8074 6.49477 93.4336 6.49477H94.8236V12.7499ZM93.4638 7.06891C93.2825 7.00847 93.1012 7.00847 92.9501 7.00847C90.8348 7.00847 88.5987 9.24461 88.5987 12.629C88.5987 13.9586 89.3542 15.5904 90.8046 15.6508C92.3155 15.6508 93.4638 13.9888 93.4638 12.206V7.06891ZM91.1672 4.04711C90.714 4.04711 90.3816 3.71471 90.3816 3.26144C90.3816 2.77795 90.714 2.44556 91.1672 2.44556C91.6507 2.44556 92.0133 2.80817 92.0133 3.26144C92.0133 3.71471 91.6507 4.04711 91.1672 4.04711ZM94.0682 4.04711C93.5847 4.04711 93.2523 3.71471 93.2523 3.26144C93.2523 2.77795 93.5847 2.44556 94.0682 2.44556C94.5214 2.44556 94.8538 2.80817 94.8538 3.26144C94.8538 3.71471 94.5214 4.04711 94.0682 4.04711Z" fill="#363434"/>
<path d="M108.028 16.1327H104.916C104.191 19.4567 101.773 20.2424 99.9905 20.2424C99.6883 20.2424 99.3861 20.2121 98.5702 20.1517C100.534 19.7287 102.771 19.1243 103.496 16.1327H100.595C99.235 16.1327 97.4521 14.8333 97.4521 12.7785C97.4521 8.94082 100.051 6.49316 103.677 6.49316H105.097V14.2894C105.097 14.7729 105.037 15.196 104.976 15.5888H107.998V16.1327H108.028ZM103.737 14.3499V7.0673C103.556 7.00687 103.375 7.00686 103.224 7.00686C101.139 7.00686 98.8724 9.243 98.8724 12.6274C98.8724 13.9872 99.6278 15.4981 101.109 15.5586H103.617C103.677 15.196 103.707 14.8031 103.737 14.3499Z" fill="#363434"/>
<path d="M107.605 15.5889H107.817C109.267 15.5889 109.841 14.7428 109.841 13.3528V9.39423C109.841 8.85031 109.811 8.75965 109.086 8.54812L111.231 8.12507V12.0232C111.231 13.4434 112.198 15.6191 113.891 15.6191C115.371 15.6191 115.945 14.773 115.945 13.383V8.57834C115.945 8.0042 115.945 7.94377 115.16 7.70202L117.305 7.27897V11.9628C117.305 13.4132 118.302 15.5587 119.995 15.5587C121.475 15.5587 122.08 14.7126 122.08 13.3226V7.73224C122.08 7.18832 122.049 7.09766 121.294 6.88613L123.439 6.43286V11.9628C123.439 13.4132 124.437 15.5587 126.129 15.5587H126.794V16.1026H126.582C125.041 16.1026 124.104 15.4378 123.349 13.9874C123.107 15.3472 121.989 16.1026 120.478 16.1026C118.937 16.1026 118.03 15.4983 117.245 13.9874C116.973 15.3472 115.885 16.1026 114.404 16.1026C112.863 16.1026 112.017 15.4681 111.262 14.1989L111.201 14.1082C110.899 15.4076 109.811 16.1328 108.3 16.1328H107.605V15.5889Z" fill="#363434"/>
<path d="M126.432 15.5889H126.613C128.064 15.5889 128.668 14.7428 128.668 13.3528V3.59237C128.668 3.04845 128.638 2.83692 127.913 2.62539L130.058 2.17212V13.3528C130.058 15.1659 128.85 16.1631 127.067 16.1631H126.402V15.5889H126.432Z" fill="#363434"/>
<path d="M133.29 3.56233C133.29 3.01841 133.259 2.80689 132.504 2.59536L134.649 2.14209V16.133H133.29V3.56233Z" fill="#363434"/>
<path d="M148.098 13.8061C147.917 14.2291 147.675 14.622 147.373 14.9846C146.829 15.5587 146.013 16.1328 144.653 16.1328C142.478 16.1328 140.876 13.7456 140.876 11.0864C140.876 8.60856 142.538 6.13068 145.167 6.13068C146.799 6.13068 147.857 7.24875 148.159 7.24875C148.552 7.24875 148.612 6.61418 148.763 6.37243H149.337C149.247 6.85592 149.247 7.43006 149.247 7.88333V13.6852C149.247 14.3198 149.337 15.4983 150.667 15.5889H152.873V16.1328H151.271C149.7 16.1328 148.431 15.9213 148.098 13.8061ZM145.137 6.67461C143.233 6.67461 142.296 8.85031 142.296 11.2073C142.296 14.5615 143.898 15.5587 144.925 15.5587C146.164 15.5587 147.222 14.7126 147.615 13.4737C147.826 12.7484 147.887 11.9628 147.887 10.754C147.887 8.85031 147.585 6.67461 145.137 6.67461ZM144.079 3.8039C143.626 3.8039 143.263 3.4715 143.263 3.01823C143.263 2.53474 143.626 2.17212 144.079 2.17212C144.533 2.17212 144.895 2.53474 144.895 3.01823C144.895 3.50172 144.533 3.8039 144.079 3.8039ZM146.98 3.8039C146.497 3.8039 146.134 3.4715 146.134 3.01823C146.134 2.53474 146.497 2.17212 146.98 2.17212C147.434 2.17212 147.766 2.53474 147.766 3.01823C147.766 3.50172 147.403 3.8039 146.98 3.8039Z" fill="#363434"/>
<path d="M159.882 16.1342C158.341 16.1342 157.374 15.4996 156.679 14.0189C156.437 15.3788 155.319 16.1342 153.778 16.1342H152.418V15.5903H153.385C154.775 15.5601 155.349 14.7442 155.349 13.3541V7.76381C155.349 7.21988 155.319 7.12923 154.594 6.91771L156.739 6.46444V11.9943C156.739 13.4448 157.706 15.5903 159.429 15.5903H160.093V16.1342H159.882ZM157.102 3.83547V3.35198H156.346C155.289 3.35198 154.745 2.23392 154.745 1.5389C154.745 1.05541 155.017 0.541703 155.591 0.541703C155.863 0.541703 156.105 0.571919 156.195 0.813663C156.074 0.904317 155.923 1.11585 155.923 1.29715C155.923 1.5389 156.135 1.75042 156.377 1.75042C156.618 1.75042 156.8 1.62956 156.8 1.2065C156.8 0.571925 156.286 0.118652 155.621 0.118652C154.654 0.118652 154.05 0.904323 154.05 1.81086C154.05 2.50588 154.563 3.08002 155.017 3.35198H153.868L153.687 3.83547H157.102Z" fill="#363434"/>
<path d="M159.882 20.0008C159.429 20.0008 159.066 19.6684 159.066 19.1849C159.066 18.7317 159.429 18.369 159.882 18.369C160.366 18.369 160.698 18.7317 160.698 19.1849C160.668 19.6684 160.336 20.0008 159.882 20.0008ZM167.165 16.1329C165.624 16.1329 164.657 15.4983 163.931 14.0176C163.69 15.3775 162.572 16.1329 161.031 16.1329H159.671V15.589H160.638C162.028 15.5588 162.602 14.7429 162.602 13.3528V7.76251C162.602 7.21858 162.572 7.12793 161.846 6.91641L163.992 6.46313V11.993C163.992 13.4435 164.959 15.589 166.681 15.589H167.346V16.1329H167.165ZM162.753 20.0008C162.27 20.0008 161.907 19.6684 161.907 19.1849C161.907 18.7317 162.239 18.369 162.753 18.369C163.206 18.369 163.569 18.7317 163.569 19.1849C163.569 19.6684 163.206 20.0008 162.753 20.0008Z" fill="#363434"/>
<path d="M179.071 16.1337H166.954V15.5897H168.767C168.797 15.4084 168.827 15.2573 168.858 15.1063C168.888 14.8041 168.948 14.5321 169.009 14.2601C169.402 12.3866 170.61 10.6944 172.665 10.6944C174.448 10.6944 175.445 11.9334 175.445 13.2327C175.445 14.1695 174.871 15.1365 173.572 15.5897H177.439C177.439 10.4225 175.294 7.82371 173.36 7.82371C170.822 7.82371 170.066 9.30439 169.704 11.4196H169.462C169.492 8.36763 171.366 7.27979 173.36 7.27979H173.39C176.684 7.27979 179.132 11.5405 179.132 15.62V16.1337H179.071ZM169.25 15.5897H170.429C172.03 15.5897 174.146 14.8947 174.146 12.8701C174.146 11.8427 173.269 11.2988 172.393 11.2988C171.124 11.2988 169.825 12.5075 169.492 14.1393L169.25 15.5897Z" fill="#363434"/>
<path d="M10.3035 30.7903H9.78983C9.42722 28.8866 8.39981 26.6807 6.10324 26.6807C4.32038 26.6807 2.29578 27.9801 2.29578 32.6336C2.29578 37.2872 4.04842 38.5866 6.1939 38.5866C8.5509 38.5866 9.88049 36.7131 9.97114 34.0539H10.5755C10.5755 37.1361 8.94373 39.1003 6.1939 39.1003C2.5073 39.1003 0.633789 35.7763 0.633789 32.6336C0.633789 28.947 3.1721 26.167 6.1939 26.167C7.94654 26.167 8.82286 27.3455 9.21569 27.3455C9.54809 27.3455 9.69918 26.8016 9.78983 26.59H10.3035V30.7903Z" fill="#363434"/>
<path d="M17.4064 32.7839V37.6188C17.4064 38.1627 17.6179 38.2836 17.8899 38.2836C18.2525 38.2836 18.464 37.9512 18.464 36.8633H18.9777C18.9777 38.072 18.6453 38.8879 17.497 38.8879C16.6509 38.8879 16.2581 38.344 16.2279 37.3166H16.1977C15.684 38.3138 14.7472 39.0995 13.4176 39.0995C12.2391 39.0995 10.97 38.3742 10.97 36.9842C10.97 34.6876 14.5357 34.053 16.1977 33.5998V32.3004C16.1977 31.273 15.6538 30.6082 14.3544 30.6082C13.5989 30.6082 12.8133 30.8801 12.3298 31.273L12.36 31.3032C12.7226 31.3032 13.1154 31.5752 13.1154 32.0889C13.1154 32.5119 12.8133 32.9652 12.2693 32.9652C11.7556 32.9652 11.4535 32.5724 11.4535 31.9378C11.4535 30.9406 12.6924 30.0945 14.3242 30.0945C16.2883 30.1549 17.4064 30.7895 17.4064 32.7839ZM16.1675 34.1135C14.5055 34.4761 12.3298 34.9898 12.3298 37.1353C12.3298 37.9814 13.0852 38.5253 13.8105 38.5253C15.1098 38.5253 16.1675 37.1051 16.1675 35.4431V34.1135Z" fill="#363434"/>
<path d="M20.093 31.605C20.093 31.061 19.7908 30.8797 18.6425 30.8797V30.366L21.3017 30.2451V31.8467H21.3319C21.9363 31.0006 22.3594 30.1243 23.9911 30.1243C26.1668 30.1243 27.6475 32.3302 27.6475 34.6268C27.6475 36.8931 26.1668 39.1292 23.6889 39.1292C22.6918 39.1292 21.8759 38.7364 21.3319 37.981H21.3017V40.761C21.3017 41.3049 21.6039 41.4863 22.7824 41.4863V41.9999H18.4915V41.4863C19.7606 41.4863 20.0628 41.3049 20.0628 40.761V31.605H20.093ZM21.3319 34.6268C21.3319 37.7392 21.9665 38.6155 23.84 38.6155C25.1696 38.6155 26.3481 37.4975 26.3481 34.6268C26.3481 31.7863 25.1696 30.638 23.84 30.638C22.4802 30.638 21.3319 31.7863 21.3319 34.6268Z" fill="#363434"/>
<path d="M32.4838 38.8877H28.1929V38.3739C29.462 38.3739 29.7642 38.1926 29.7642 37.6487V31.5749C29.7642 31.031 29.462 30.8497 28.3137 30.8497V30.336L31.0031 30.2151V37.6185C31.0031 38.1624 31.3053 38.3437 32.4838 38.3437V38.8877ZM31.0938 27.4048C31.0938 27.8883 30.7312 28.2509 30.2175 28.2509C29.734 28.2509 29.3412 27.8883 29.3412 27.4048C29.3412 26.9213 29.734 26.5285 30.2175 26.5285C30.701 26.4983 31.0938 26.8911 31.0938 27.4048Z" fill="#363434"/>
<path d="M37.8018 30.1537V30.6674H35.0822V37.1038C35.0822 38.2219 35.6261 38.6147 36.2607 38.6147C36.8046 38.6147 37.5903 38.2219 37.5903 36.7714V35.9857H38.104V36.6505C38.104 38.101 37.4392 39.1284 35.9585 39.1284C34.6289 39.1284 33.8735 38.4032 33.8735 37.0131V30.6371H32.5137V30.1234C34.0246 30.1234 34.4778 28.6427 34.5987 27.4038H35.1124V30.1234H37.8018V30.1537Z" fill="#363434"/>
<path d="M45.1744 32.7839V37.6188C45.1744 38.1627 45.3859 38.2836 45.6579 38.2836C45.9903 38.2836 46.2018 37.9512 46.2018 36.8633H46.7155C46.7155 38.072 46.3831 38.8879 45.2348 38.8879C44.3887 38.8879 43.9959 38.344 43.9657 37.3166H43.9355C43.4218 38.3138 42.485 39.0995 41.1554 39.0995C39.9769 39.0995 38.7078 38.3742 38.7078 36.9842C38.7078 34.6876 42.2735 34.053 43.9355 33.5998V32.3004C43.9355 31.273 43.3916 30.6082 42.0922 30.6082C41.3367 30.6082 40.5511 30.8801 40.0676 31.273L40.0978 31.3032C40.4604 31.3032 40.8532 31.5752 40.8532 32.0889C40.8532 32.5119 40.5511 32.9652 40.0071 32.9652C39.4934 32.9652 39.1913 32.5724 39.1913 31.9378C39.1913 30.9406 40.4302 30.0945 42.062 30.0945C44.0261 30.1549 45.1744 30.7895 45.1744 32.7839ZM43.9355 34.1135C42.2735 34.4761 40.0978 34.9898 40.0978 37.1353C40.0978 37.9814 40.8532 38.5253 41.5785 38.5253C42.8778 38.5253 43.9355 37.1051 43.9355 35.4431V34.1135Z" fill="#363434"/>
<path d="M49.5861 37.6481C49.5861 38.192 49.8883 38.3733 51.0668 38.3733V38.887H46.7759V38.3733C48.045 38.3733 48.3472 38.192 48.3472 37.6481V27.7064C48.3472 27.1624 48.045 26.9811 46.927 26.9811V26.4674L49.5861 26.407V37.6481Z" fill="#363434"/>
<path d="M56.085 26.407H59.6205L62.884 36.4696H62.9444L66.3893 26.407H69.7737V26.9207C68.3535 26.9207 68.1117 27.0113 68.1117 28.1596V37.1344C68.1117 38.2827 68.3535 38.3733 69.8039 38.3733V38.887H65.0295V38.3733C66.5404 38.3733 66.7519 38.2827 66.7519 37.1344V27.3437H66.7217L62.7027 38.887H62.2796L58.442 27.3437H58.4117V37.0739C58.4117 37.9805 58.8348 38.3431 60.1342 38.3733V38.887H56.085V38.3733C57.3541 38.3431 57.7772 37.9503 57.7772 37.0739V28.1596C57.7772 27.0113 57.5354 26.9207 56.085 26.9207V26.407Z" fill="#363434"/>
<path d="M76.7218 32.7839V37.6188C76.7218 38.1627 76.9334 38.2836 77.2053 38.2836C77.5377 38.2836 77.7795 37.9512 77.7795 36.8633H78.2932C78.2932 38.072 77.9608 38.8879 76.8125 38.8879C75.9664 38.8879 75.5735 38.344 75.5433 37.3166H75.5131C74.9994 38.3138 74.0626 39.0995 72.7331 39.0995C71.5546 39.0995 70.2854 38.3742 70.2854 36.9842C70.2854 34.6876 73.8511 34.053 75.5131 33.5998V32.3004C75.5131 31.273 74.9692 30.6082 73.6698 30.6082C72.9144 30.6082 72.1287 30.8801 71.6452 31.273L71.6754 31.3032C72.038 31.3032 72.4309 31.5752 72.4309 32.0889C72.4309 32.5119 72.1287 32.9652 71.5848 32.9652C71.0711 32.9652 70.7689 32.5724 70.7689 31.9378C70.7689 30.9406 72.0078 30.0945 73.6396 30.0945C75.6038 30.1549 76.7218 30.7895 76.7218 32.7839ZM75.4829 34.1135C73.8209 34.4761 71.615 34.9898 71.615 37.1353C71.615 37.9814 72.3704 38.5253 73.0957 38.5253C74.395 38.5253 75.4527 37.1051 75.4527 35.4431V34.1135H75.4829Z" fill="#363434"/>
<path d="M79.8356 31.605C79.8356 31.061 79.5334 30.8797 78.3851 30.8797V30.366L81.0443 30.2451V32.4208H81.1048C81.4976 31.3632 82.1624 30.1243 83.4618 30.1243C84.187 30.1243 84.8518 30.5775 84.8518 31.3632C84.8518 31.9071 84.5194 32.2395 84.0057 32.2395C83.5222 32.2395 83.1596 31.9676 83.1596 31.4236C83.1596 31.0912 83.3107 30.8495 83.5826 30.6984C83.5222 30.638 83.4315 30.6078 83.3107 30.6078C82.8272 30.6078 81.7393 31.1517 81.2559 33.2367C81.0141 34.385 81.0141 36.0772 81.0141 37.2557C81.0141 38.1623 81.3163 38.3436 82.6459 38.3436V38.8573H78.3247V38.3436C79.5032 38.3436 79.7752 38.1623 79.7752 37.6183V31.605H79.8356Z" fill="#363434"/>
<path d="M93.6147 30.3651V30.8788C92.2549 30.9997 91.7412 31.4227 89.4748 33.6891L91.8318 37.285C92.5269 38.3729 92.7384 38.4031 93.7658 38.4031V38.9168H91.5297L88.5985 34.4748L87.7524 35.2302V37.6779C87.7524 38.2218 88.0546 38.4031 89.2331 38.4031V38.9168H84.9421V38.4031C86.2113 38.4031 86.5135 38.2218 86.5135 37.6779V27.7362C86.5135 27.1922 86.2113 27.0109 85.063 27.0109V26.4972L87.7222 26.4368V34.6259L90.5022 32.0875C90.8044 31.7854 91.0764 31.5436 91.0764 31.2414C91.0764 30.9393 90.744 30.8788 89.6864 30.8788V30.3651H93.6147Z" fill="#363434"/>
<path d="M95.1547 34.4157V34.9294C95.1547 36.9842 96.1519 38.5857 97.9348 38.5857C99.5061 38.5857 100.141 37.8605 100.836 36.8331L101.289 37.1353C100.201 38.7368 99.355 39.0995 97.8139 39.0995C95.336 39.0995 93.7949 36.8633 93.7949 34.597C93.7949 31.9378 95.2756 30.0945 97.7233 30.0945C99.9896 30.0945 101.289 32.24 101.289 34.3854H95.1547V34.4157ZM99.8989 33.9019C99.8989 32.4213 99.4457 30.6384 97.6024 30.6384C95.9404 30.6384 95.1849 32.3306 95.1849 33.9019H99.8989Z" fill="#363434"/>
<path d="M106.549 30.1537V30.6674H103.829V37.1038C103.829 38.2219 104.373 38.6147 105.007 38.6147C105.551 38.6147 106.337 38.2219 106.337 36.7714V35.9857H106.851V36.6505C106.851 38.101 106.186 39.1284 104.675 39.1284C103.345 39.1284 102.59 38.4032 102.59 37.0131V30.6371H101.23V30.1234C102.771 30.1234 103.194 28.6427 103.285 27.4038H103.799V30.1234H106.549V30.1537Z" fill="#363434"/>
<path d="M110.537 38.887V38.3733C111.716 38.3733 112.109 38.2222 112.35 37.5877L116.521 26.407H116.974L121.144 37.7085C121.355 38.2827 121.778 38.4035 122.715 38.4035V38.9172H118.092V38.4035C119.452 38.4035 119.693 38.2524 119.693 37.8898C119.693 37.3761 118.787 35.2609 118.606 34.6565H114.073C113.982 34.9587 113.045 37.3761 113.045 37.92C113.045 38.3431 113.438 38.4035 114.677 38.4035V38.9172H110.537V38.887ZM114.315 34.0219H118.424L116.4 28.4316L114.315 34.0219Z" fill="#363434"/>
<path d="M129.785 37.6484C129.785 38.1923 130.057 38.3736 131.145 38.3736V38.8873L128.546 38.9779V37.6181H128.516C127.881 38.5247 127.216 39.0686 125.796 39.0686C124.225 39.0686 123.076 38.4945 123.076 36.6814V31.5443C123.076 31.0004 122.774 30.8191 121.656 30.8191V30.3054L124.315 30.1845V36.772C124.315 37.9203 124.95 38.5247 126.038 38.5247C127.549 38.5247 128.576 37.2857 128.576 35.2611V31.5141C128.576 30.9702 128.274 30.7889 127.126 30.7889V30.2752L129.815 30.1543V37.6484H129.785Z" fill="#363434"/>
<path d="M136.04 30.1537V30.6674H133.32V37.1038C133.32 38.2219 133.864 38.6147 134.499 38.6147C135.013 38.6147 135.828 38.2219 135.828 36.7714V35.9857H136.342V36.6505C136.342 38.101 135.677 39.1284 134.197 39.1284C132.867 39.1284 132.112 38.4032 132.112 37.0131V30.6371H130.782V30.1234C132.293 30.1234 132.746 28.6427 132.837 27.4038H133.351V30.1234H136.04V30.1537Z" fill="#363434"/>
<path d="M143.685 38.887V32.9945C143.685 32.0577 143.685 30.6375 142.023 30.6375C140.603 30.6375 139.454 32.0275 139.454 34.4148V37.6481C139.454 38.192 139.757 38.3733 140.905 38.3733V38.887H136.674V38.3733C137.943 38.3733 138.215 38.192 138.215 37.6481V27.7064C138.215 27.1624 137.913 26.9811 136.765 26.9811V26.4674L139.424 26.407V31.8462H139.454C140.089 30.6979 140.875 30.154 142.295 30.154C143.896 30.154 144.924 30.9397 144.924 32.8434V37.6783C144.924 38.2222 145.135 38.4035 146.344 38.4035V38.9172H143.685V38.887Z" fill="#363434"/>
<path d="M146.224 34.6268C146.224 32.3604 147.705 30.1243 150.152 30.1243C152.63 30.1243 154.081 32.3302 154.081 34.6268C154.081 36.8931 152.63 39.1292 150.152 39.1292C147.705 39.1292 146.224 36.8931 146.224 34.6268ZM152.721 34.6268C152.721 32.0582 151.905 30.638 150.152 30.638C148.4 30.638 147.584 32.0582 147.584 34.6268C147.584 37.1953 148.4 38.6155 150.152 38.6155C151.935 38.6155 152.721 37.1953 152.721 34.6268Z" fill="#363434"/>
<path d="M155.38 31.605C155.38 31.061 155.078 30.8797 153.929 30.8797V30.366L156.619 30.2451V32.4208H156.649C157.072 31.3632 157.707 30.1243 159.036 30.1243C159.761 30.1243 160.426 30.5775 160.426 31.3632C160.426 31.9071 160.094 32.2395 159.58 32.2395C159.097 32.2395 158.734 31.9676 158.734 31.4236C158.734 31.0912 158.885 30.8495 159.157 30.6984C159.097 30.638 159.006 30.6078 158.885 30.6078C158.402 30.6078 157.314 31.1517 156.83 33.2367C156.589 34.385 156.589 36.0772 156.589 37.2557C156.589 38.1623 156.861 38.3436 158.22 38.3436V38.8573H153.899V38.3436C155.047 38.3436 155.35 38.1623 155.35 37.6183V31.605H155.38Z" fill="#363434"/>
<path d="M165.141 38.8877H160.85V38.3739C162.119 38.3739 162.421 38.1926 162.421 37.6487V31.5749C162.421 31.031 162.119 30.8497 161.001 30.8497V30.336L163.66 30.2151V37.6185C163.66 38.1624 163.932 38.3437 165.141 38.3437V38.8877ZM163.751 27.4048C163.751 27.8883 163.358 28.2509 162.874 28.2509C162.391 28.2509 161.998 27.8883 161.998 27.4048C161.998 26.9213 162.391 26.5285 162.874 26.5285C163.358 26.4983 163.751 26.8911 163.751 27.4048Z" fill="#363434"/>
<path d="M170.096 30.2474V30.7611H167.377V37.2278C167.377 38.3458 167.921 38.7387 168.555 38.7387C169.099 38.7387 169.885 38.3458 169.885 36.8954V36.0795H170.399V36.7443C170.399 38.1948 169.734 39.2222 168.223 39.2222C166.893 39.2222 166.138 38.4969 166.138 37.1069V30.7309H164.778V30.2172C166.289 30.2172 166.742 28.7365 166.833 27.4976H167.347V30.2172H170.096V30.2474Z" fill="#363434"/>
<path d="M169.915 30.2444H173.995V30.7581C172.665 30.7581 172.514 30.9092 172.514 31.1811C172.514 31.6344 173.572 34.0518 174.781 37.0132H174.811C176.019 33.931 176.956 31.9366 176.956 31.3322C176.956 30.9092 176.684 30.7581 175.596 30.7581V30.2444H179.041V30.7581C178.105 30.7581 177.833 30.9394 177.47 31.7855L174.75 38.5846C173.753 41.0926 173.149 41.8481 171.789 41.8481C170.852 41.8481 170.067 41.2135 170.067 40.3976C170.067 39.8235 170.49 39.4307 170.973 39.4307C171.426 39.4307 171.789 39.7328 171.789 40.1257C171.789 40.6696 171.487 40.9718 170.943 41.002C171.064 41.2135 171.426 41.3344 171.88 41.3344C172.907 41.3344 173.662 40.2466 174.116 38.5543L171.275 31.4229C171.064 30.8487 170.61 30.7279 169.885 30.7279V30.2444H169.915Z" fill="#363434"/>
<mask id="mask0_191_48361" style="mask-type:luminance" maskUnits="userSpaceOnUse" x="199" y="0" width="16" height="42">
<path d="M199.89 41.9443L214.122 27.7116L199.92 0.00170898L199.89 41.9443Z" fill="white"/>
</mask>
<g mask="url(#mask0_191_48361)">
<path d="M211.16 -5.77002L231.164 33.2112L202.88 47.7159L182.876 8.76485L211.16 -5.77002Z" fill="url(#paint0_linear_191_48361)"/>
</g>
<path d="M227.632 14.2327L241.865 0H199.923L227.632 14.2327Z" fill="#90D2F4"/>
<path d="M214.124 27.7087L199.892 41.9414H241.864L214.124 27.7087Z" fill="#2970AD"/>
<mask id="mask1_191_48361" style="mask-type:luminance" maskUnits="userSpaceOnUse" x="227" y="0" width="15" height="42">
<path d="M227.633 14.2344L241.865 41.9443V0.00170898L227.633 14.2344Z" fill="white"/>
</mask>
<g mask="url(#mask1_191_48361)">
<path d="M230.592 47.7461L210.588 8.76485L238.902 -5.77002L258.907 33.2112L230.592 47.7461Z" fill="url(#paint1_linear_191_48361)"/>
</g>
<defs>
<linearGradient id="paint0_linear_191_48361" x1="197.014" y1="1.49236" x2="211.236" y2="29.1972" gradientUnits="userSpaceOnUse">
<stop stop-color="#AAACAF"/>
<stop offset="1" stop-color="#FAFAFA"/>
</linearGradient>
<linearGradient id="paint1_linear_191_48361" x1="244.747" y1="40.4679" x2="230.518" y2="12.7503" gradientUnits="userSpaceOnUse">
<stop stop-color="#AAACAF"/>
<stop offset="1" stop-color="#FAFAFA"/>
</linearGradient>
</defs>
</svg>
