<?xml version="1.0" encoding="UTF-8"?>
<svg id="Layer_2" data-name="Layer 2" xmlns="http://www.w3.org/2000/svg" viewBox="0 0 96.09 98.01">
  <defs>
    <style>
      .cls-1 {
        strokeWidth: 0px;
      }
    </style>
  </defs>
  <g id="Layer_1-2" data-name="Layer 1">
    <path class="cls-1" d="m0,22.86h8.38C3.09,30.58,0,39.91,0,49.96c0,.29,0,.59.01.88.13,7.27,1.88,14.16,4.89,20.29.02.05.05.09.07.13,7.85,15.85,24.19,26.75,43.07,26.75,22.13,0,40.78-14.97,46.35-35.34.01-.01.01-.02.01-.05,1.06-3.85,1.63-7.89,1.69-12.08v-.59c0-10.06-3.09-19.38-8.38-27.1h8.38V0H0v22.86Zm75.08,25.4c.04.56.06,1.13.06,1.7,0,14.97-12.14,27.1-27.1,27.1s-27.09-12.14-27.09-27.1c0-.55.01-1.09.06-1.63-.01-.02-.01-.03,0-.06.87-14.18,12.63-25.41,27.03-25.41s26.17,11.23,27.04,25.4Z"/>
  </g>
</svg>